# xmcd CD database file
#
# Track frame offsets:
#	182
#	10880
#	21727
#	34462
#	48287
#	58282
#	69972
#	80400
#	91877
#	104297
#	114595
#	125010
#	135705
#	147950
#	160377
#	171557
#	182027
#	192297
#
# Disc length: 2705 seconds
#
# Revision: 2
# Processed by: cddbd v1.5.2PL0 Copyright (c) Steve Scherf et al.
# Submitted via: CDex 1.70beta2
#
DISCID=0a0a8f12
DTITLE=Various (Disky) - 50 years of Country - [CD1, 1949 - 1957)
DYEAR=2000
DGENRE=Country
TTITLE0=Eddy Arnold - The Cattle Call
TTITLE1=Hank Williams - Why don't you love me
TTITLE2=Hank Snow - I'm movin' on
TTITLE3=Red Foley, Ernest Tub - Goodnight Irene
TTITLE4=Moon Mullican - I'll sail my ship alone
TTITLE5=Tennessee Ernie Ford - The shotgun boogie
TTITLE6=Les Paul and Mary Ford - Mockin' bird hill
TTITLE7=Jimmie Dolan - Hot rod race
TTITLE8=Skeets McDonald - Don't let the stars get in your eyes
TTITLE9=Hank Thompson - Wake up Irene
TTITLE10=Faron Young - Live fast, love hard, die young
TTITLE11=Patsy Cline - Honky Tonk merry go round
TTITLE12=Johnny Cash - I walk the line
TTITLE13=Jerry Lee Lewis - Crazy Arms
TTITLE14=Wanda Jackson - I gotta know
TTITLE15=The Everley Brothers - Bye bye love
TTITLE16=Jimmie Rodgers - Honeycomb
TTITLE17=Charlie Rich - Who will the next fool be
EXTD=YEAR: 2000
EXTT0=
EXTT1=
EXTT2=
EXTT3=with The Sunshine Trio
EXTT4=
EXTT5=
EXTT6=
EXTT7=
EXTT8=
EXTT9=
EXTT10=
EXTT11=
EXTT12=and The Tennessee Two
EXTT13=
EXTT14=
EXTT15=
EXTT16=
EXTT17=
PLAYORDER=
